<svg width="28" height="26" viewBox="0 0 28 26" fill="none" xmlns="http://www.w3.org/2000/svg">
<path d="M2.62967 0.551189C2.37998 0.644322 1.4217 1.71535 1.09103 2.26084C0.0720247 3.93724 -0.258647 6.03273 0.206993 7.82886C0.449935 8.75354 1.10453 9.82456 1.79961 10.4233L2.13703 10.716L1.90759 10.7892C1.4217 10.9488 1.15852 11.3746 1.17201 11.9932C1.19226 13.1773 1.92783 14.3149 3.01433 14.8604C3.70266 15.2063 4.16155 15.2728 5.53148 15.2263C6.19957 15.2063 6.84067 15.1731 6.94864 15.1531L7.15109 15.1065L7.27257 15.6986C7.556 17.069 8.19035 18.5524 8.90568 19.537L9.24985 20.016L9.22285 20.475C9.16887 21.4396 9.47254 22.311 10.0529 22.8233C10.3228 23.0627 10.4308 23.2157 10.5185 23.5018C10.7615 24.2535 11.3081 24.8589 12.0639 25.1981C12.948 25.6039 14.7093 25.5973 15.6068 25.1981C16.2884 24.8921 16.9565 24.0872 17.1657 23.3355C17.2197 23.1426 17.3074 23.0228 17.4761 22.9164C18.0228 22.5705 18.3872 21.6724 18.3872 20.6612V20.0293L18.8258 19.384C19.5479 18.313 19.9933 17.2552 20.3172 15.8582C20.3982 15.4791 20.4859 15.1597 20.4994 15.1398C20.5197 15.1265 20.7221 15.1464 20.9583 15.1864C21.6332 15.2928 23.3473 15.2728 23.8196 15.1531C24.427 15.0001 24.8926 14.7473 25.338 14.3482C26.0264 13.7162 26.384 12.9977 26.4583 12.093C26.5123 11.4677 26.33 11.1085 25.8374 10.8623L25.5067 10.696L25.8712 10.3634C26.6202 9.68487 27.1533 8.79345 27.4435 7.76899C27.565 7.31663 27.592 7.06384 27.5852 6.1059C27.5852 5.1014 27.565 4.90183 27.4098 4.32972C27.0589 3.03252 26.3975 1.85505 25.527 1.00355C25.0411 0.517928 24.8319 0.424795 24.535 0.551189C24.1841 0.690889 24.1571 0.843893 24.319 1.79518C24.6025 3.49818 24.4675 4.96835 23.9141 6.07264C23.2393 7.42307 21.7951 8.25461 19.8988 8.381L19.2847 8.42092L18.9203 8.14817C18.124 7.55611 17.3412 7.33659 16.0252 7.34324C15.2289 7.34324 14.7295 7.40976 14.1019 7.59603C13.8658 7.6692 13.7645 7.66255 13.3259 7.53616C12.5566 7.30998 10.9842 7.27006 10.2419 7.45633C9.56027 7.62929 9.05414 7.86212 8.67623 8.17478L8.38605 8.42092L7.73821 8.381C6.19282 8.28122 4.86339 7.68251 4.12106 6.73787C3.7769 6.29882 3.49346 5.6868 3.32475 5.02822C3.1223 4.23659 3.1223 2.5602 3.32475 1.64883C3.43948 1.12994 3.44622 1.02351 3.36524 0.830588C3.24377 0.537885 2.94009 0.424795 2.62967 0.551189Z" fill="white"/>
</svg>
